<svg xmlns="http://www.w3.org/2000/svg" width="120" height="28" viewBox="0 0 120 28" fill="none"><path d="M31.9017 23.8042C31.893 21.097 31.9394 18.3875 31.8695 15.6809C31.8523 15.0527 31.6053 14.3255 31.214 13.8277C28.9271 10.9171 26.5586 8.06728 24.2336 5.18472C22.8839 3.51078 23.0089 1.77385 24.5192 0.653091C25.96 -0.415153 27.6977 -0.0910553 29.0441 1.54153C31.0335 3.95404 32.9977 6.38625 35.0134 8.86133C37.1478 6.2562 39.1999 3.71551 41.297 1.21039C42.3015 0.0109972 43.6922 -0.279517 44.9977 0.323883C46.3094 0.930307 47.0706 2.28901 46.6861 3.62483C46.5034 4.2591 46.0842 4.86396 45.6552 5.39414C43.3805 8.2049 41.0421 10.9695 38.7932 13.7994C38.3985 14.2952 38.1406 15.0191 38.1243 15.645C38.0516 18.3527 38.1042 21.0611 38.0884 23.7696C38.0776 25.8294 36.7979 27.261 34.998 27.2727C34.991 27.2727 34.9839 27.2727 34.9769 27.2727C33.1648 27.2731 31.9085 25.8703 31.9017 23.8042ZM52.4893 27.2258C50.8921 27.1685 49.5382 25.8971 49.5314 24.2862C49.5035 17.189 49.5026 10.0914 49.5289 2.99342C49.5343 1.35521 50.8445 0.11206 52.4638 0.0569399C54.1221 0.00228919 55.5567 1.19934 55.6324 2.90754C55.7268 5.04804 55.6545 7.19371 55.6545 9.56554C58.805 6.88431 61.7976 4.33711 64.7916 1.79116C65.1916 1.45012 65.5796 1.09197 65.9997 0.774282C67.4163 -0.292814 69.1729 -0.148731 70.3039 1.11006C71.3941 2.32124 71.3352 3.97197 70.0209 5.15322C68.0972 6.88171 66.0958 8.52968 64.1274 10.2119C62.8323 11.3186 61.5348 12.4245 60.1328 13.622L68.8998 21.0955C69.2341 21.3806 69.5807 21.6524 69.8993 21.9527C71.3138 23.2788 71.443 24.9086 70.247 26.1899C69.0255 27.4967 67.3412 27.5915 65.8525 26.3411C62.7575 23.7458 59.7001 21.1102 56.6266 18.4913C56.3711 18.2738 56.1115 18.0607 55.6868 17.7039C55.6868 19.626 55.6914 21.331 55.6839 23.0357C55.6814 23.551 55.6893 24.0715 55.6145 24.5792C55.3889 26.0915 54.0609 27.2275 52.5903 27.2275C52.5567 27.2278 52.523 27.2273 52.4893 27.2258ZM3.37747 26.8172C1.15743 26.8074 0.0120598 25.7003 0.00829301 23.5468C-0.00246924 16.9682 -0.00275658 10.3892 0.00743168 3.81006C0.00958413 1.64593 1.08839 0.532474 3.33835 0.492737C6.27736 0.442154 9.21992 0.436418 12.1589 0.496023C15.5134 0.563815 18.0758 2.04069 19.6095 4.92205C21.1553 7.82532 20.7954 10.6544 18.8491 13.3058C18.7748 13.4091 18.72 13.5253 18.6364 13.6716C20.5759 16.1993 21.2042 18.9714 19.8525 21.9057C18.4025 25.0565 15.8059 26.7461 12.1993 26.8097C10.9613 26.8319 9.72273 26.8392 8.48459 26.8392C6.78194 26.8391 5.0799 26.8251 3.37747 26.8172ZM6.03607 16.6309V21.0107C8.31713 21.0107 10.4474 21.0756 12.5716 20.9861C13.7228 20.9366 14.4104 20.19 14.5288 19.0554C14.6533 17.8507 14.0125 16.75 12.8187 16.6727C11.8971 16.6129 10.9725 16.5953 10.0432 16.5953C8.71926 16.5952 7.38565 16.6309 6.03607 16.6309ZM6.04355 6.34526V10.7125C8.33628 10.7125 10.505 10.7729 12.6682 10.689C13.8039 10.6449 14.525 9.69168 14.5396 8.55137C14.553 7.40501 13.8629 6.4227 12.7309 6.37316C11.8182 6.33363 10.9039 6.32206 9.98501 6.32206C8.68417 6.32206 7.37382 6.34526 6.04355 6.34526ZM97.7658 26.5942C96.0449 25.8886 95.4622 24.284 96.271 22.4035C99.158 15.7043 102.047 9.00589 104.938 2.30826C105.51 0.973278 106.368 -0.0140333 107.969 0.0001509C109.554 0.0126663 110.415 0.969105 110.992 2.31889C113.861 9.02476 116.772 15.7151 119.655 22.4154C120.456 24.2771 119.829 25.9283 118.11 26.604C116.477 27.2472 114.883 26.4934 114.061 24.67C113.53 23.49 113.025 22.2983 112.502 21.1136C112.469 21.0374 112.393 20.9791 112.325 20.8985H103.48C102.925 22.1761 102.386 23.4457 101.824 24.7042C101.21 26.0729 100.131 26.8344 98.9382 26.8344C98.5347 26.8317 98.136 26.7498 97.7658 26.5942ZM106.058 14.934H109.872L107.956 10.5303L106.058 14.934ZM77.1591 26.8012C75.034 26.7922 73.8514 25.651 73.848 23.5988C73.836 16.9352 73.8364 10.2715 73.8493 3.60777C73.8522 1.58142 75.0541 0.409979 77.1705 0.398246C81.4458 0.374745 85.7219 0.374344 89.9988 0.397046C91.9794 0.407945 93.35 1.67185 93.3119 3.36263C93.2743 5.0118 91.9401 6.16139 89.9975 6.16994C86.6673 6.18408 83.337 6.17318 79.9133 6.17318V10.6425C80.3781 10.6633 80.8484 10.7017 81.3195 10.7029C82.3724 10.7045 83.4253 10.7042 84.4782 10.7021C86.3208 10.6996 88.1634 10.6976 90.006 10.7125C91.9966 10.7295 93.3477 11.97 93.3108 13.6737C93.274 15.3184 91.939 16.4608 89.9839 16.4725C87.1326 16.4887 84.2818 16.4769 81.4309 16.4769H79.9085V21.0196H81.3238C84.2182 21.0196 87.1149 21.0034 90.0092 21.0257C91.9841 21.0413 93.3516 22.296 93.3107 23.9933C93.2714 25.636 91.9287 26.7958 89.9883 26.8023C87.822 26.8093 85.6556 26.8129 83.4892 26.8132C81.3792 26.8132 79.2692 26.8092 77.1591 26.8012Z" fill="#00AA2F"></path></svg>